<?xml version="1.0" standalone="no"?>
<!DOCTYPE svg PUBLIC "-//W3C//DTD SVG 20010904//EN"
 "http://www.w3.org/TR/2001/REC-SVG-20010904/DTD/svg10.dtd">
<svg version="1.0" xmlns="http://www.w3.org/2000/svg"
 width="1500.000000pt" height="1072.000000pt" viewBox="0 0 1500.000000 1072.000000"
 preserveAspectRatio="xMidYMid meet">

<g transform="translate(0.000000,1072.000000) scale(0.100000,-0.100000)"
fill="#000000" stroke="none">
<path d="M0 5360 l0 -5360 7500 0 7500 0 0 5360 0 5360 -7500 0 -7500 0 0
-5360z m8715 3566 c545 -546 1008 -1013 1030 -1036 l40 -44 -42 35 c-22 19
-197 169 -389 334 -608 525 -647 559 -725 625 -42 36 -186 160 -319 275 -134
116 -282 243 -329 284 -47 40 -113 97 -146 126 -95 84 -114 97 -127 89 -13 -8
-43 -33 -112 -95 -23 -19 -169 -145 -326 -280 -384 -330 -1197 -1028 -1290
-1107 -41 -36 -104 -91 -140 -122 -223 -196 -88 -56 840 873 569 571 1037
1037 1040 1037 3 0 451 -447 995 -994z m-770 -792 c182 -32 347 -117 479 -247
139 -138 206 -282 214 -460 7 -162 -27 -278 -130 -444 -31 -48 -70 -113 -86
-143 l-31 -55 202 0 c161 0 215 -4 266 -18 143 -39 246 -109 292 -199 28 -54
36 -165 19 -239 -24 -101 -130 -282 -222 -379 -18 -20 -52 -56 -75 -81 l-42
-45 75 -80 c133 -139 236 -304 264 -423 17 -74 9 -185 -19 -239 -45 -89 -149
-160 -287 -197 -82 -22 -323 -31 -465 -16 -115 12 -360 64 -479 102 -494 158
-952 416 -1273 719 l-69 64 -19 -24 c-79 -99 -147 -234 -156 -308 -11 -95 3
-139 60 -197 41 -40 69 -57 130 -80 42 -15 79 -26 80 -24 2 2 15 23 29 45 45
70 147 103 225 73 64 -24 122 -109 123 -178 0 -81 -77 -172 -159 -186 -83 -14
-168 33 -203 111 -16 38 -23 43 -71 54 -80 19 -178 73 -224 123 -70 76 -78 98
-78 217 1 97 3 110 34 180 37 82 64 127 127 210 l42 55 -24 30 c-50 61 -112
162 -145 235 -31 70 -33 83 -34 180 0 119 8 141 78 217 34 36 41 51 39 78 -6
65 41 141 110 176 61 31 148 19 202 -29 67 -60 74 -195 13 -260 -60 -65 -152
-79 -233 -36 l-49 26 -32 -37 c-85 -98 -39 -289 116 -485 l19 -24 69 64 c87
82 194 170 304 247 87 61 240 156 271 168 21 8 19 18 -27 161 -39 119 -106
256 -212 433 -115 193 -142 274 -142 426 -1 192 66 344 215 492 128 127 297
215 470 247 108 19 309 19 419 0z m-1675 -4212 c0 -475 3 -631 12 -640 7 -7
29 -12 50 -12 32 0 40 4 48 26 6 15 10 265 10 640 l0 614 90 0 90 0 0 -654 0
-654 -33 -63 c-49 -97 -74 -109 -215 -109 l-114 0 -38 38 c-20 20 -48 64 -61
97 l-24 60 -3 629 c-1 346 0 636 2 643 4 9 30 13 96 13 l90 0 0 -628z m1876
609 c18 -11 43 -35 58 -53 45 -59 56 -100 56 -203 l0 -95 -84 0 -83 0 -6 72
c-7 84 -19 98 -83 98 -77 0 -74 22 -74 -538 0 -307 4 -500 10 -512 12 -22 59
-34 100 -25 23 5 32 14 40 43 5 20 10 54 10 75 l0 37 85 0 85 0 0 -93 c0 -80
-4 -100 -26 -145 -14 -28 -44 -66 -67 -84 -39 -31 -46 -33 -140 -36 -54 -2
-109 -1 -122 2 -38 10 -93 64 -123 120 l-27 51 0 570 c0 566 0 570 22 610 22
41 87 108 113 118 8 3 62 6 120 6 87 1 110 -2 136 -18z m576 -13 c19 -14 49
-53 66 -86 l32 -60 0 -568 c0 -551 -1 -570 -21 -614 -23 -51 -61 -95 -101
-116 -18 -10 -62 -14 -136 -14 -133 0 -158 13 -211 110 l-36 65 -3 533 c-2
343 1 552 8 589 13 72 48 126 108 164 46 30 50 30 153 27 96 -3 109 -6 141
-30z m598 17 c35 -18 72 -65 99 -125 20 -43 21 -64 21 -603 0 -460 -2 -564
-14 -592 -18 -43 -88 -119 -124 -134 -18 -8 -91 -11 -212 -9 l-185 3 -3 738
-2 737 195 0 c155 0 202 -3 225 -15z m-3422 -9 c36 -19 65 -51 93 -106 22 -41
24 -58 24 -185 l0 -140 -90 0 -90 0 -5 118 c-5 125 -10 137 -58 137 -13 0 -32
-5 -43 -10 -17 -10 -19 -22 -19 -131 0 -141 3 -151 93 -265 126 -159 185 -249
201 -303 21 -73 22 -346 2 -415 -17 -56 -57 -111 -100 -137 -25 -15 -50 -19
-134 -19 -137 0 -170 18 -223 120 -22 41 -24 60 -27 208 l-4 162 96 0 96 0 0
-140 c0 -127 2 -140 19 -150 26 -14 64 -13 79 2 14 14 15 131 3 229 -8 62 -15
76 -147 274 l-139 208 0 201 c0 196 1 202 25 246 14 24 44 59 68 77 43 32 45
33 148 33 71 0 114 -5 132 -14z m1110 0 c36 -19 65 -51 93 -106 22 -41 24 -58
24 -185 l0 -140 -90 0 -90 0 -5 118 c-5 125 -10 137 -58 137 -13 0 -32 -5 -43
-10 -17 -10 -19 -22 -19 -131 0 -141 3 -151 93 -265 126 -159 185 -249 201
-303 21 -73 22 -346 2 -415 -17 -56 -57 -111 -100 -137 -25 -15 -50 -19 -134
-19 -137 0 -170 18 -223 120 -22 41 -24 60 -27 208 l-4 162 96 0 96 0 0 -140
c0 -127 2 -140 19 -150 26 -14 64 -13 79 2 14 14 15 131 3 229 -8 62 -15 76
-147 274 l-139 208 0 201 c0 196 1 202 25 246 14 24 44 59 68 77 43 32 45 33
148 33 71 0 114 -5 132 -14z m560 0 c36 -19 65 -51 93 -106 22 -41 24 -58 24
-185 l0 -140 -90 0 -90 0 -5 118 c-5 125 -10 137 -58 137 -13 0 -32 -5 -43
-10 -17 -10 -19 -22 -19 -131 0 -141 3 -151 93 -265 126 -159 185 -249 201
-303 21 -73 22 -346 2 -415 -17 -56 -57 -111 -100 -137 -25 -15 -50 -19 -134
-19 -137 0 -170 18 -223 120 -22 42 -24 56 -24 205 l0 160 93 3 92 3 0 -140
c0 -128 2 -141 19 -151 26 -14 64 -13 79 2 14 14 15 131 3 229 -8 62 -15 76
-147 274 l-139 208 0 201 c0 196 1 202 25 246 14 24 44 59 68 77 43 32 45 33
148 33 71 0 114 -5 132 -14z m2392 -106 l0 -120 -115 0 -115 0 0 -90 0 -89
118 -3 117 -3 3 -87 3 -88 -121 0 -120 0 0 -315 0 -315 115 0 115 0 0 -120 0
-120 -210 0 -210 0 0 735 0 735 210 0 210 0 0 -120z m-3940 -1855 c133 -115
280 -241 325 -280 45 -38 160 -137 255 -220 95 -82 192 -166 215 -185 24 -19
120 -102 216 -185 95 -82 209 -181 254 -220 45 -38 144 -124 220 -190 76 -66
166 -143 200 -172 l61 -51 239 205 c252 216 579 497 630 542 17 14 187 161
380 326 192 165 388 333 435 374 174 151 340 291 365 310 11 8 -443 -449
-1010 -1017 -566 -568 -1035 -1032 -1040 -1032 -10 0 -2021 2012 -2055 2055
-17 23 -14 20 310 -260z"/>
<path d="M7600 8063 c-87 -14 -194 -50 -278 -92 -151 -77 -257 -178 -326 -311
-48 -94 -61 -151 -61 -270 0 -134 20 -193 118 -361 117 -198 182 -326 225
-439 53 -140 61 -171 72 -265 13 -125 30 -258 36 -283 l4 -22 348 2 347 3 3
35 c3 40 37 259 53 340 29 145 132 370 285 626 97 162 119 228 119 364 0 119
-13 176 -61 270 -105 203 -324 352 -588 399 -57 11 -243 13 -296 4z m207 -339
c24 -9 43 -19 43 -23 0 -3 -42 -107 -93 -231 l-94 -225 159 -3 158 -2 -6 -27
c-7 -26 -232 -574 -239 -581 -5 -6 -95 29 -95 37 0 3 42 107 94 231 l93 225
-159 3 -159 3 6 22 c13 42 239 587 244 587 3 0 25 -7 48 -16z"/>
<path d="M8408 6691 c-31 -3 -62 -11 -67 -16 -28 -28 -146 -407 -130 -418 2
-2 42 -25 89 -51 116 -67 240 -148 333 -221 43 -33 89 -69 103 -80 l26 -20 70
75 c161 173 245 317 255 438 3 42 1 83 -6 105 -29 87 -160 165 -314 186 -82
12 -262 12 -359 2z"/>
<path d="M6585 6661 c-35 -15 -59 -50 -59 -88 0 -28 7 -42 33 -65 28 -25 39
-29 70 -24 90 14 112 129 31 171 -32 17 -45 18 -75 6z"/>
<path d="M7225 6276 c-11 -7 -51 -32 -90 -57 -150 -94 -307 -214 -428 -328
l-68 -64 38 -40 c169 -175 485 -391 785 -537 81 -39 100 -38 239 16 217 82
365 151 544 252 161 90 434 284 434 307 0 22 -283 223 -421 300 l-66 36 -10
-68 c-9 -61 -8 -70 9 -86 24 -23 24 -43 -1 -64 -11 -10 -20 -22 -20 -28 0 -6
9 -18 20 -28 11 -9 20 -24 20 -32 0 -8 -9 -24 -20 -35 -25 -25 -25 -28 2 -57
21 -22 21 -26 7 -51 l-15 -27 -452 -3 c-301 -1 -459 1 -472 8 -13 7 -20 21
-20 38 0 33 16 52 43 52 26 0 16 23 -14 30 -45 11 -34 90 12 90 11 0 19 7 19
15 0 8 -8 15 -18 15 -26 0 -42 20 -42 52 0 21 6 29 25 34 22 5 25 12 25 48 0
23 -5 69 -10 102 -6 32 -13 74 -16 92 -5 35 -9 37 -39 18z m743 -638 c7 -7 12
-21 12 -33 0 -43 -12 -45 -260 -45 -248 0 -260 2 -260 45 0 43 12 45 260 45
170 0 239 -3 248 -12z"/>
<path d="M7390 5915 c0 -13 45 -15 345 -15 300 0 345 2 345 15 0 13 -45 15
-345 15 -300 0 -345 -2 -345 -15z"/>
<path d="M7400 5802 c-5 -2 -10 -8 -10 -13 0 -5 141 -9 340 -9 220 0 340 4
340 10 0 6 -6 10 -12 11 -38 3 -650 3 -658 1z"/>
<path d="M8718 5732 c-218 -188 -560 -385 -907 -522 -84 -34 -128 -56 -120
-61 8 -4 91 -33 184 -64 520 -174 988 -179 1154 -14 52 52 65 94 58 181 -7 81
-59 197 -131 292 -58 76 -185 216 -196 216 -5 0 -24 -13 -42 -28z"/>
<path d="M6813 5150 c-32 -13 -56 -65 -49 -105 17 -89 139 -106 181 -25 42 80
-45 165 -132 130z"/>
<path d="M8512 4323 c-4 -10 -7 -246 -7 -524 0 -414 2 -509 14 -522 15 -19 62
-22 92 -7 18 10 19 27 19 528 0 390 -3 521 -12 530 -19 19 -97 15 -106 -5z"/>
<path d="M9092 3813 l3 -538 62 0 c50 0 65 4 77 20 13 17 15 90 16 518 0 577
8 537 -100 537 l-60 0 2 -537z"/>
</g>
</svg>
